<svg xmlns="http://www.w3.org/2000/svg" viewBox="0 0 24 24" width="100%" height="100%">
  <path fill="#232F3E" d="M18.8 12.8c-.8.8-2 1.2-3.6 1.2-2.3 0-3.9-1.1-3.9-3.2 0-2.3 1.9-3.3 4.3-3.3h3v-.5c0-1-.6-1.7-1.9-1.7-1.2 0-2.3.4-3.1.9l-.8-2.2c1.2-.8 3-1.3 4.9-1.3 3.1 0 5 1.5 5 4.7v5.2c0 1.2.5 1.7.9 2.1h-3.2c-.3-.5-.5-1.1-.6-1.5zm-.2-3.6h-2.5c-1.1 0-1.9.4-1.9 1.4 0 .9.7 1.3 1.7 1.3 1.3 0 2.2-.7 2.7-1.6v-1.1z"/>
  <path fill="#FF9900" d="M4.6 20.3c3.8 2.2 8.7 3.2 13.1 2.5 1.5-.2 3.1-.7 4.3-1.6.4-.3.2-.8-.2-.7-4.1 1.2-9 1-13.3-.8-1.5-.6-2.9-1.5-3.9-2.6-.4-.4-.8 0-.4.4.1.2.2.4.4.6z"/>
</svg>
